<svg version="1.1" xmlns="http://www.w3.org/2000/svg" width="540" height="512" viewBox="0 0 540 512"><title>chrome</title><path d="M255.143 0c43.715-0.285 88.285 10.857 128.857 34.285 44.857 26 78.857 63.428 100.572 106.285l-212-11.143c-60-3.428-117.143 30.286-136.857 86.857l-78.857-121.143c49.143-61.143 122.857-94.857 198.286-95.143zM41.715 115.715l96.285 189.429c27.143 53.428 84.572 86 144 74.857l-65.714 128.857c-122.572-18.857-216.286-124.857-216.286-252.857 0-51.715 15.428-100 41.715-140.286zM494.857 164c44.857 115.428 0 249.714-110.857 313.714-44.857 26-94.286 36.571-142.286 34l115.714-178c32.857-50.572 32.286-116.572-6.857-162.286zM256 169.714c47.714 0 86.286 38.572 86.286 86.286s-38.572 86.286-86.286 86.286-86.286-38.572-86.286-86.286 38.572-86.286 86.286-86.286z"></path></svg>